<svg width="20" height="19" viewBox="0 0 20 19" fill="none" xmlns="http://www.w3.org/2000/svg">
<path d="M19.9036 0.867171C19.814 0.779945 19.6818 0.752953 19.5653 0.798265L0.203626 8.31774C0.0885484 8.36243 0.00960322 8.46942 0.000814174 8.59251C-0.00797487 8.71559 0.0549547 8.8327 0.162455 8.89329L4.17491 11.154L5.56752 17.961C5.57619 18.0091 5.59576 18.0539 5.62385 18.0924C5.62666 18.0963 5.62897 18.0993 5.63131 18.1022C5.68037 18.1636 5.74994 18.2064 5.83104 18.2194C5.84139 18.221 5.85178 18.2222 5.86209 18.2228C5.86877 18.2233 5.87541 18.2235 5.88205 18.2235C5.94295 18.2235 6.00065 18.2061 6.04983 18.1755C6.06647 18.1652 6.08229 18.1533 6.09697 18.1398C6.10154 18.1355 6.10553 18.1318 6.1094 18.1278L9.12982 15.0997C9.25427 14.9749 9.25404 14.7728 9.12923 14.6483C9.00431 14.5238 8.80236 14.5241 8.67787 14.6489L6.30526 17.0276L6.81791 12.6372L14.0638 16.6143C14.1368 16.6541 14.2179 16.6627 14.2922 16.6448C14.3003 16.6428 14.3078 16.6407 14.3152 16.6383C14.3885 16.6145 14.4529 16.565 14.4938 16.4939C14.4959 16.4902 14.4977 16.4869 14.4995 16.4835C14.5078 16.4678 14.5145 16.4523 14.5197 16.4366L19.9812 1.20346C20.0234 1.0858 19.9931 0.95432 19.9036 0.867171ZM1.06374 8.66845L16.8892 2.52232L4.44698 10.5747L1.06374 8.66845ZM6.35623 11.8803C6.32639 11.9043 6.30041 11.934 6.2801 11.9689C6.27744 11.9734 6.27494 11.9781 6.27252 11.9827C6.25315 12.0202 6.2419 12.0597 6.23819 12.0993L5.79549 15.8906L4.81475 11.097L15.561 4.1422L6.35623 11.8803ZM14.0432 15.8748L7.11807 12.0738L18.9815 2.10057L14.0432 15.8748Z" fill="#F2F2F2"/>
</svg>
