<svg width="20" height="20" viewBox="0 0 20 20" fill="none" xmlns="http://www.w3.org/2000/svg">
<path d="M12.8571 1.42857H14.2857V4.64286H12.8571V1.42857Z" fill="#6FCF97"/>
<path d="M20 2.64786L17.3521 0H16.4286V5.71429C16.4286 5.99845 16.3157 6.27097 16.1148 6.4719C15.9138 6.67283 15.6413 6.78571 15.3571 6.78571H4.64286C4.3587 6.78571 4.08617 6.67283 3.88524 6.4719C3.68431 6.27097 3.57143 5.99845 3.57143 5.71429V0H1.07143C0.787268 0 0.514746 0.112882 0.313814 0.313814C0.112882 0.514746 0 0.787268 0 1.07143V18.9286C0 19.2127 0.112882 19.4853 0.313814 19.6862C0.514746 19.8871 0.787268 20 1.07143 20H1.42857V11.0714C1.42914 10.598 1.61746 10.1441 1.95222 9.80936C2.28698 9.4746 2.74086 9.28628 3.21429 9.28571H16.7857C17.2591 9.28628 17.713 9.4746 18.0478 9.80936C18.3825 10.1441 18.5709 10.598 18.5714 11.0714V20H18.9286C19.2127 20 19.4853 19.8871 19.6862 19.6862C19.8871 19.4853 20 19.2127 20 18.9286V2.64786Z" fill="#6FCF97"/>
<path d="M16.7857 10H3.21429C2.93013 10 2.6576 10.1129 2.45667 10.3138C2.25574 10.5147 2.14286 10.7873 2.14286 11.0714V20H17.8571V11.0714C17.8571 10.7873 17.7443 10.5147 17.5433 10.3138C17.3424 10.1129 17.0699 10 16.7857 10ZM15.3571 17.5H4.64286C4.54814 17.5 4.4573 17.4624 4.39032 17.3954C4.32334 17.3284 4.28571 17.2376 4.28571 17.1429C4.28571 17.0481 4.32334 16.9573 4.39032 16.8903C4.4573 16.8233 4.54814 16.7857 4.64286 16.7857H15.3571C15.4519 16.7857 15.5427 16.8233 15.6097 16.8903C15.6767 16.9573 15.7143 17.0481 15.7143 17.1429C15.7143 17.2376 15.6767 17.3284 15.6097 17.3954C15.5427 17.4624 15.4519 17.5 15.3571 17.5ZM15.3571 15.3571H4.64286C4.54814 15.3571 4.4573 15.3195 4.39032 15.2525C4.32334 15.1856 4.28571 15.0947 4.28571 15C4.28571 14.9053 4.32334 14.8144 4.39032 14.7475C4.4573 14.6805 4.54814 14.6429 4.64286 14.6429H15.3571C15.4519 14.6429 15.5427 14.6805 15.6097 14.7475C15.6767 14.8144 15.7143 14.9053 15.7143 15C15.7143 15.0947 15.6767 15.1856 15.6097 15.2525C15.5427 15.3195 15.4519 15.3571 15.3571 15.3571ZM15.3571 13.2143H4.64286C4.54814 13.2143 4.4573 13.1767 4.39032 13.1097C4.32334 13.0427 4.28571 12.9519 4.28571 12.8571C4.28571 12.7624 4.32334 12.6716 4.39032 12.6046C4.4573 12.5376 4.54814 12.5 4.64286 12.5H15.3571C15.4519 12.5 15.5427 12.5376 15.6097 12.6046C15.6767 12.6716 15.7143 12.7624 15.7143 12.8571C15.7143 12.9519 15.6767 13.0427 15.6097 13.1097C15.5427 13.1767 15.4519 13.2143 15.3571 13.2143Z" fill="#6FCF97"/>
<path d="M15.3571 6.07143C15.4519 6.07143 15.5427 6.0338 15.6097 5.96682C15.6767 5.89985 15.7143 5.80901 15.7143 5.71429V0H4.28571V5.71429C4.28571 5.80901 4.32334 5.89985 4.39032 5.96682C4.4573 6.0338 4.54814 6.07143 4.64286 6.07143H15.3571ZM12.1429 1.07143C12.1429 0.976708 12.1805 0.885868 12.2475 0.818891C12.3144 0.751913 12.4053 0.714286 12.5 0.714286H14.6429C14.7376 0.714286 14.8284 0.751913 14.8954 0.818891C14.9624 0.885868 15 0.976708 15 1.07143V5C15 5.09472 14.9624 5.18556 14.8954 5.25254C14.8284 5.31952 14.7376 5.35714 14.6429 5.35714H12.5C12.4053 5.35714 12.3144 5.31952 12.2475 5.25254C12.1805 5.18556 12.1429 5.09472 12.1429 5V1.07143Z" fill="#6FCF97"/>
</svg>
