<svg width="16" height="18" viewBox="0 0 16 18" fill="none" xmlns="http://www.w3.org/2000/svg">
<path d="M13.7531 2.57144H12.637C12.6137 2.57144 12.5931 2.57943 12.5714 2.58466V1.41266C12.5714 0.633656 11.9233 0 11.1264 0H1.44503C0.648169 0 0 0.633656 0 1.41266V14.5873C0 15.3663 0.648169 16 1.44503 16H3.14286V16.6378C3.14286 17.389 3.76619 18 4.53265 18H13.7531C14.5195 18 15.1429 17.389 15.1429 16.6378V3.93359C15.1429 3.18248 14.5195 2.57144 13.7531 2.57144ZM0.571415 14.5873V1.41266C0.571415 0.948937 0.96345 0.571444 1.44503 0.571444H11.1264C11.608 0.571444 12 0.948937 12 1.41266V14.5873C12 15.0511 11.608 15.4286 11.1264 15.4286H1.44503C0.96345 15.4286 0.571415 15.0511 0.571415 14.5873ZM14.5714 16.6378C14.5714 17.074 14.2042 17.4286 13.7531 17.4286H4.53265C4.08147 17.4286 3.71427 17.074 3.71427 16.6378V16H11.1264C11.9233 16 12.5714 15.3663 12.5714 14.5873V3.12964C12.593 3.13487 12.6137 3.14286 12.637 3.14286H13.7531C14.2042 3.14286 14.5714 3.49748 14.5714 3.93359V16.6378Z" fill="#F2F2F2"/>
<path d="M9.42857 3.7143H3.14286C2.98494 3.7143 2.85714 3.84208 2.85714 4C2.85714 4.15795 2.98494 4.28572 3.14286 4.28572H9.42857C9.58649 4.28572 9.71429 4.15795 9.71429 4C9.71429 3.84208 9.58649 3.7143 9.42857 3.7143Z" fill="#F2F2F2"/>
<path d="M9.42857 6.00002H3.14286C2.98494 6.00002 2.85714 6.12779 2.85714 6.28571C2.85714 6.44363 2.98494 6.57143 3.14286 6.57143H9.42857C9.58649 6.57143 9.71429 6.44363 9.71429 6.28571C9.71429 6.12779 9.58649 6.00002 9.42857 6.00002Z" fill="#F2F2F2"/>
<path d="M9.42857 8.28571H3.14286C2.98494 8.28571 2.85714 8.41351 2.85714 8.57143C2.85714 8.72935 2.98494 8.85716 3.14286 8.85716H9.42857C9.58649 8.85716 9.71429 8.72935 9.71429 8.57143C9.71429 8.41351 9.58649 8.28571 9.42857 8.28571Z" fill="#F2F2F2"/>
<path d="M6.57144 10.5714H3.14286C2.98494 10.5714 2.85714 10.6992 2.85714 10.8571C2.85714 11.0151 2.98494 11.1429 3.14286 11.1429H6.57144C6.72936 11.1429 6.85713 11.0151 6.85713 10.8571C6.85713 10.6992 6.72936 10.5714 6.57144 10.5714Z" fill="#F2F2F2"/>
</svg>
